<?xml version="1.0" encoding="UTF-8" standalone="no"?>
<svg
   viewBox="0 0 640 640"
   version="1.1"
   id="svg1"
   width="640"
   height="640"
   xmlns="http://www.w3.org/2000/svg"
   xmlns:svg="http://www.w3.org/2000/svg">
  <defs
     id="defs1" />
  <!--!Font Awesome Free 6.5.2 by @fontawesome - https://fontawesome.com License - https://fontawesome.com/license/free Copyright 2024 Fonticons, Inc.-->
  <path
     d="m 301.1,98.799706 c 11.5,5.200004 18.9,16.600004 18.9,29.200004 v 384 c 0,12.6 -7.4,24 -18.9,29.2 -11.5,5.2 -25,3.1 -34.4,-5.3 l -134.9,-119.9 H 64 c -35.3,0 -64,-28.7 -64,-64 v -64 c 0,-35.3 28.7,-64 64,-64 h 67.8 l 134.9,-119.9 c 9.4,-8.400004 22.9,-10.400004 34.4,-5.300004 z"
     id="path1"
     style="display:inline;fill:#ffffff;fill-opacity:0.604426" />
  <path
     d="M 533.6,96.499706 C 598.5,149.19971 640,229.79971 640,319.99971 c 0,90.2 -41.5,170.7 -106.4,223.5 -10.3,8.4 -25.4,6.8 -33.8,-3.5 -8.4,-10.3 -6.8,-25.4 3.5,-33.8 54.2,-44 88.7,-111 88.7,-186.2 0,-75.2 -34.5,-142.2 -88.7,-186.3 -10.3,-8.4 -11.8,-23.5 -3.5,-33.800004 8.3,-10.3 23.5,-11.8 33.8,-3.5 z"
     id="path2"
     style="display:inline;fill:#000000;fill-opacity:0.597033" />
  <path
     d="m 473.1,170.99971 c 43.2,35.2 70.9,88.9 70.9,149 0,60.1 -27.7,113.8 -70.9,149 -10.3,8.4 -25.4,6.8 -33.8,-3.5 -8.4,-10.3 -6.8,-25.4 3.5,-33.8 32.5,-26.4 53.2,-66.6 53.2,-111.7 0,-45.1 -20.70057,-85.2993 -53.2,-111.8 -10.30057,-8.3993 -11.8,-23.5 -3.5,-33.8 8.3,-10.3 23.5,-11.8 33.8,-3.5 z"
     id="path3"
     style="display:inline;fill:#ffffff;fill-opacity:0.603922" />
  <path
     d="m 412.6,245.49971 c 21.5,17.6 35.4,44.4 35.4,74.5 0,30.1 -13.9,56.9 -35.4,74.5 -10.3,8.4 -25.4,6.8 -33.8,-3.5 -8.4,-10.3 -6.8,-25.4 3.5,-33.8 10.8,-8.8 17.7,-22.2 17.7,-37.2 0,-15 -6.9,-28.4 -17.7,-37.3 -10.3,-8.4 -11.8,-23.5 -3.5,-33.8 8.3,-10.3 23.5,-11.8 33.8,-3.5 z"
     id="path4"
     style="display:inline;fill:#ffffff;fill-opacity:0.603922" />
</svg>
